<svg version="1.1" id="Layer_1" xmlns:x="ns_extend;" xmlns:i="ns_ai;" xmlns:graph="ns_graphs;" xmlns="http://www.w3.org/2000/svg" xmlns:xlink="http://www.w3.org/1999/xlink" x="0px" y="0px" viewBox="0 0 289.6 82" style="enable-background:new 0 0 289.6 82;" xml:space="preserve">
 <style type="text/css">
  .st0{fill-rule:evenodd;clip-rule:evenodd;fill:#262626;}
 </style>
 <metadata>
  <sfw xmlns="ns_sfw;">
   <slices>
   </slices>
   <sliceSourceBounds bottomLeftOrigin="true" height="82" width="289.6" x="-37.6" y="-214.8">
   </sliceSourceBounds>
  </sfw>
 </metadata>
 <g>
  <path class="st0" d="M14.9,0.3C9,2.8,2.5,9.8,0.4,18.5c-2.6,11.1,8.2,15.8,9.1,14.3c1-1.8-1.9-2.4-2.6-8.2C6.2,17.2,9.7,8.8,14,5.2
		c0.8-0.7,0.8,0.3,0.8,2l-0.2,37.1c0,7.9-0.3,10.4-0.9,12.9c-0.6,2.5-1.5,4.2-0.8,4.9c0.8,0.7,4.3-1,6.3-3.8
		c2.3-3.5,3.5-7.6,3.4-11.7c0.2-5.3,0.2-13.7,0.2-18.4c0-4.4,0.1-17.2-0.1-24.9C22.6,1.2,17.4-0.8,14.9,0.3L14.9,0.3z M225.4,37.4
		c-0.1,3.3-0.8,6.6-2.3,9.6c-2.2,4.4-6.7,5.8-8.7-0.6c-1-3.4-1.1-9.2-0.3-14c0.8-4.9,2.9-8.6,6.5-8.3
		C224.2,24.5,225.8,29,225.4,37.4z M166.1,63c-0.1,6.8-1.1,12.8-3.4,14.6c-3.3,2.5-7.7,0.6-6.8-4.4c0.8-4.4,4.6-8.9,10.3-14.5
		L166.1,63z M165.2,37.3c-0.1,3.3-0.9,6.6-2.3,9.7c-2.2,4.4-6.8,5.8-8.7-0.6c-1.3-4.3-1-9.9-0.3-13.5c0.8-4.6,2.9-8.8,6.5-8.8
		C163.9,24.2,165.7,28,165.2,37.3z M130.8,37.3c-0.1,3.4-0.8,6.7-2.2,9.7c-2.3,4.4-6.7,5.7-8.7-0.6c-1.4-4.5-0.9-10.8-0.3-14.1
		c0.9-5,3.1-8.5,6.5-8.2C129.6,24.5,131.3,29,130.8,37.3z M288.3,41.9c-0.8,0-1.3,0.9-1.6,2.4c-1.1,5.2-2.3,6.4-3.8,6.4
		c-1.7,0-3.2-2.6-3.6-7.7c-0.3-4.1-0.3-11.5,0.2-18.9c0.1-1.5-0.4-3-4.4-4.5c-1.7-0.6-4.3-1.6-5.6,1.5c-2.5,5.9-4.3,12-5.3,18.3
		c0,0.2-0.2,0.2-0.3-0.2c-0.2-2.2-0.7-6.3-0.7-14.8c0-1.7-0.4-3.1-2.2-4.2c-1.2-0.8-4.8-2.1-6.2-0.5c-1.1,1.3-2.4,4.8-3.8,8.9
		l-1.9,5.6l0-12.5c0-1.3-0.9-1.7-1.2-1.8c-1.5-0.5-3-0.8-4.6-0.9c-1.2,0-1.5,0.7-1.5,1.7c0,0.1-0.2,11.9-0.2,20.2V42
		c-0.7,3.8-2.9,8.9-5.4,8.9c-2.4,0-3.6-2.2-3.6-12c0-5.7,0.2-8.2,0.3-12.4c0.1-2.4,0.2-4.2,0.2-4.6c0-1.3-2.2-1.9-3.3-2.2
		c-1-0.2-1.9-0.3-2.6-0.3c-1,0.1-1.7,0.7-1.7,1.6v1.4c-1.1-1.7-2.8-3.1-4.7-3.8c-3.7-1.1-7.5-0.1-10.4,3.9c-2.5,3.6-4,7.8-4.3,12.1
		c-0.4,3.8-0.3,7.7,0.4,11c-0.8,3.7-2.5,5.2-4.2,5.2c-2.5,0-4.4-4.2-4.2-11.3c0.2-4.7,1.1-8,2.1-12.8c0.4-2.1,0.1-3.1-0.8-4.1
		c-0.8-0.9-2.6-1.4-5.1-0.8c-1.8,0.4-4.4,0.9-6.7,1.2c0,0,0.1-0.5,0.3-1.5c0.6-5.2-5.1-4.8-6.9-3.1c-1.1,1-1.8,2.2-2.1,4.3
		c-0.4,3.3,2.3,4.9,2.3,4.9c-1.8,6.7-4.7,12.9-8.7,18.5v-1.8c0-8.6,0.1-15.4,0.1-17.8c0.1-2.4,0.2-4.2,0.2-4.6
		c0-0.9-0.6-1.3-1.7-1.7c-1-0.4-2.2-0.7-3.4-0.8c-1.5-0.1-2.5,0.7-2.5,1.7v1.3c-1.1-1.8-2.8-3.1-4.7-3.8c-3.7-1.1-7.5-0.1-10.4,3.9
		c-2.4,3.6-3.9,7.8-4.3,12.1c-0.4,4-0.3,7.4,0.2,10.4c-0.6,2.9-2.3,5.9-4.2,5.9c-2.4,0-3.8-2.1-3.8-12c0-5.7,0.2-8.2,0.3-12.4
		c0.1-2.4,0.2-4.2,0.2-4.6c0-1.3-2.2-1.9-3.3-2.2c-1.1-0.3-2-0.3-2.7-0.3c-0.9,0.1-1.6,0.9-1.6,1.5v1.4c-1.1-1.8-2.8-3.1-4.7-3.8
		c-3.7-1.1-7.5-0.1-10.4,3.9c-1.9,2.6-3.5,5.6-4.3,12c-0.2,1.7-0.3,3.5-0.3,5.2c-0.8,4.6-4.1,10-6.9,10c-1.6,0-3.2-3.1-3.2-9.7
		c0-8.8,0.6-21.4,0.6-22.6l4.2-0.1c1.7,0,3.3,0,5.6-0.1c1.2-0.1,2.3-4.2,1.1-4.7c-0.5-0.2-4.4-0.4-5.9-0.5c-1.3,0-4.8-0.3-4.8-0.3
		s0.3-8.4,0.4-9.2c0.1-0.8-0.9-1.1-1.5-1.4c-1.3-0.5-2.6-0.9-3.9-1.1c-1.9-0.4-2.8,0-3,1.6c-0.3,2.5-0.4,9.8-0.4,9.8
		c-1.4,0-6.3-0.3-7.7-0.3c-1.3,0-2.8,5.7-0.9,5.8l8.2,0.2L93,34v1.2C91.7,42.2,87,46,87,46c1-4.6-1.1-8.1-4.8-11
		c-1.4-1.1-4.1-3.1-7.2-5.4c0,0,1.8-1.7,3.3-5.2c1.1-2.5,1.2-5.3-1.6-5.9c-4.5-1.1-8.2,2.2-9.3,5.8c-0.9,2.3-0.4,5,1.3,6.8l0.4,0.5
		c-1,1.9-2.4,4.6-3.6,6.6c-3.3,5.6-5.7,10.1-7.6,10.1c-1.5,0-1.5-4.5-1.5-8.8c0-3.7,0.3-9.2,0.5-14.9c0.1-1.9-0.9-3-2.5-3.9
		c-1.3-0.9-2.7-1.5-4.2-1.8c-1.8,0-6.9,0.3-11.8,14.3c-0.6,1.8-1.8,5-1.8,5l0.1-16.8c0-0.4-0.2-0.8-0.7-1c-1.5-0.8-3.2-1.3-4.9-1.4
		c-0.9,0-1.4,0.4-1.4,1.3l-0.2,26.4c0,2,0.1,4.3,0.3,5.4c0.2,1,0.5,1.8,0.9,2.3c0.4,0.5,0.8,0.9,1.6,1c0.7,0.2,4.6,0.6,4.8-0.8
		c0.3-1.8,0.3-3.7,2.3-10.8c3.1-11,7.2-16.5,9.2-18.4c0.3-0.4,0.7-0.4,0.7,0.2l-0.6,13.6c-0.5,13.8,2,16.3,5.6,16.3
		c2.7,0,6.6-2.7,10.8-9.6L72,34.4l4.1,3.7c3.3,3.1,4.4,6,3.6,8.8c-0.5,2.1-2.6,4.4-6.3,2.2c-1.1-0.6-1.5-1.1-2.6-1.8
		c-0.6-0.4-1.5-0.5-2-0.1c-1.4,1-2.2,2.4-2.6,4c-0.4,1.6,1.2,2.4,2.8,3.1c1.4,0.6,4.5,1.2,6.4,1.3C83,55.9,89,52,93.2,41.9
		c0.8,8.7,4,13.6,9.5,13.6c3.7,0,7.5-4.8,9.1-9.5c0.5,1.9,1.2,3.6,2.1,5c4.3,6.8,12.6,5.3,16.8-0.5c1.3-1.8,1.5-2.4,1.5-2.4
		c0.3,4,3.5,7.2,7.5,7.4c2.8,0,5.7-1.3,7.8-5.9c0.2,0.5,0.5,1,0.8,1.4c4.3,6.8,12.6,5.3,16.8-0.5l0.5-0.7l0.1,3.6l-3.8,3.5
		c-6.5,5.9-11.4,10.4-11.7,15.6c-0.5,6.7,4.9,9.1,9,9.5c4.2,0.2,8.1-1.9,10.4-5.4c2-2.9,3.3-9.3,3.2-15.6l-0.2-9.1
		c6.1-7.1,10.9-15.3,13.9-24.2c0,0,2.4,0,4.9-0.1c0.8-0.1,1.1,0.1,0.9,0.7c-0.2,0.7-3.2,12.4-0.4,20.2c1.9,5.3,6.2,7,8.7,7
		c2.9,0,5.8-2.2,7.3-5.6l0.6,1.1c4.3,6.8,12.6,5.3,16.8-0.5c0.9-1.3,1.5-2.4,1.5-2.4c0.9,5.6,5.3,7.4,7.8,7.4c2.6,0,5.1-1.1,7.1-5.8
		c0.1,2.1,0.2,3.8,0.4,4.4c0.1,0.3,0.9,0.8,1.4,0.9c2.4,0.9,4.8,0.5,5.7,0.3c0.6-0.1,1.1-0.6,1.2-1.9c0.2-3.4,0.1-9.1,1.1-13.4
		c1.7-7.2,3.3-9.9,4.1-11.3c0.4-0.8,0.9-0.9,0.9-0.1c0,1.6,0.1,6.5,0.8,12.9c0.5,4.8,1.2,7.6,1.7,8.5c1.5,2.6,3.3,2.7,4.7,2.7
		c0.9,0,2.9-0.3,2.7-1.9c-0.1-0.8,0.1-5.7,1.8-12.7c1.1-4.6,2.9-8.7,3.6-10.3c0.3-0.5,0.4-0.1,0.4,0c-0.2,3.1-0.5,13.5,0.8,19.1
		c1.7,7.6,6.8,8.5,8.6,8.5c3.8,0,6.8-2.9,7.9-10.4C289.8,43.3,289.4,41.9,288.3,41.9L288.3,41.9z">
  </path>
 </g>
</svg>